<svg width="1200" height="820" viewBox="0 0 1200 820" fill="none" xmlns="http://www.w3.org/2000/svg">
  <defs>
    <linearGradient id="bg" x1="0" y1="0" x2="1200" y2="820" gradientUnits="userSpaceOnUse">
      <stop stop-color="#07111F"/>
      <stop offset="0.5" stop-color="#0F172A"/>
      <stop offset="1" stop-color="#111C30"/>
    </linearGradient>
    <linearGradient id="accent" x1="80" y1="80" x2="420" y2="420" gradientUnits="userSpaceOnUse">
      <stop stop-color="#14B8A6"/>
      <stop offset="1" stop-color="#38BDF8"/>
    </linearGradient>
    <linearGradient id="panel" x1="0" y1="0" x2="1" y2="1">
      <stop stop-color="#15263D"/>
      <stop offset="1" stop-color="#0F1D2D"/>
    </linearGradient>
  </defs>

  <rect width="1200" height="820" rx="28" fill="url(#bg)"/>

  <rect x="70" y="58" width="1060" height="704" rx="28" fill="url(#panel)" stroke="#253C52"/>

  <rect x="92" y="82" width="192" height="660" rx="22" fill="#0A172A"/>
  <rect x="112" y="106" width="128" height="18" rx="9" fill="#14B8A6" opacity="0.96"/>
  <rect x="112" y="152" width="100" height="12" rx="6" fill="#DDEAF9" opacity="0.7"/>

  <rect x="112" y="200" width="150" height="42" rx="12" fill="#1A2D42"/>
  <rect x="112" y="268" width="150" height="42" rx="12" fill="#1A2D42"/>
  <rect x="112" y="336" width="150" height="42" rx="12" fill="#1A2D42"/>
  <rect x="112" y="404" width="150" height="42" rx="12" fill="#1A2D42"/>

  <rect x="118" y="208" width="22" height="22" rx="7" fill="url(#accent)"/>
  <rect x="118" y="276" width="22" height="22" rx="7" fill="#355375"/>
  <rect x="118" y="344" width="22" height="22" rx="7" fill="#355375"/>
  <rect x="118" y="412" width="22" height="22" rx="7" fill="#355375"/>

  <rect x="302" y="82" width="790" height="80" rx="18" fill="#0D1B2B" stroke="#253C52"/>
  <rect x="324" y="112" width="170" height="18" rx="9" fill="#DDEAF9" opacity="0.88"/>
  <rect x="962" y="101" width="92" height="40" rx="12" fill="url(#accent)"/>
  <rect x="842" y="101" width="102" height="40" rx="12" fill="#1A2D42"/>

  <rect x="302" y="196" width="230" height="136" rx="18" fill="#0E2337" stroke="#253C52"/>
  <rect x="560" y="196" width="230" height="136" rx="18" fill="#0E2337" stroke="#253C52"/>
  <rect x="818" y="196" width="274" height="136" rx="18" fill="#0E2337" stroke="#253C52"/>

  <rect x="326" y="220" width="80" height="12" rx="6" fill="#8AA8C8" opacity="0.7"/>
  <rect x="326" y="248" width="120" height="36" rx="12" fill="#1A2D42"/>
  <rect x="326" y="292" width="125" height="10" rx="5" fill="#14B8A6" opacity="0.9"/>

  <rect x="584" y="220" width="80" height="12" rx="6" fill="#8AA8C8" opacity="0.7"/>
  <rect x="584" y="248" width="140" height="36" rx="12" fill="#1A2D42"/>
  <rect x="584" y="292" width="150" height="10" rx="5" fill="#38BDF8" opacity="0.9"/>

  <rect x="842" y="220" width="100" height="12" rx="6" fill="#8AA8C8" opacity="0.7"/>
  <rect x="842" y="248" width="150" height="36" rx="12" fill="#1A2D42"/>
  <rect x="842" y="292" width="150" height="10" rx="5" fill="#14B8A6" opacity="0.9"/>

  <rect x="302" y="366" width="790" height="278" rx="22" fill="#0E2337" stroke="#253C52"/>
  <rect x="328" y="390" width="170" height="14" rx="7" fill="#DDEAF9" opacity="0.82"/>

  <rect x="328" y="438" width="500" height="168" rx="18" fill="#111F32"/>
  <path d="M332 580L420 532L500 554L586 490L676 518L820 470V602H332V580Z" fill="url(#accent)" opacity="0.25"/>
  <path d="M332 576L420 530L500 552L586 492L676 518L820 470" stroke="#14B8A6" stroke-width="6" stroke-linecap="round" stroke-linejoin="round"/>

  <rect x="872" y="438" width="180" height="34" rx="10" fill="#132B40"/>
  <rect x="872" y="488" width="180" height="16" rx="8" fill="#1F2F48"/>
  <rect x="872" y="520" width="150" height="16" rx="8" fill="#1F2F48"/>
  <rect x="872" y="552" width="130" height="16" rx="8" fill="#1F2F48"/>
</svg>
